<svg style="position: absolute; width: 0; height: 0; overflow: hidden" version="1.1" xmlns="http://www.w3.org/2000/svg" xmlns:xlink="http://www.w3.org/1999/xlink">
    <defs>
        <symbol id="icon-user" viewBox="0 0 32 32">
            <title>user</title>
            <path class="path1" d="M18 22.082v-1.649c2.203-1.241 4-4.337 4-7.432 0-4.971 0-9-6-9s-6 4.029-6 9c0 3.096 1.797 6.191 4 7.432v1.649c-6.784 0.555-12 3.888-12 7.918h28c0-4.030-5.216-7.364-12-7.918z"></path>
        </symbol>
        <symbol id="icon-star-full" viewBox="0 0 32 32">
            <title>star-full</title>
            <path class="path1" d="M32 12.408l-11.056-1.607-4.944-10.018-4.944 10.018-11.056 1.607 8 7.798-1.889 11.011 9.889-5.199 9.889 5.199-1.889-11.011 8-7.798z"></path>
        </symbol>
        <symbol id="icon-embed2" viewBox="0 0 40 32">
            <title>embed2</title>
            <path class="path1" d="M26 23l3 3 10-10-10-10-3 3 7 7z"></path>
            <path class="path2" d="M14 9l-3-3-10 10 10 10 3-3-7-7z"></path>
            <path class="path3" d="M21.916 4.704l2.171 0.592-6 22.001-2.171-0.592 6-22.001z"></path>
        </symbol>
    </defs>
</svg>